<?xml version="1.0" encoding="UTF-8"?>
<svg xmlns="http://www.w3.org/2000/svg" xmlns:xlink="http://www.w3.org/1999/xlink" width="315px" height="315px" viewBox="0 0 315 315" version="1.1">
<g id="surface1">
<path style=" stroke:none;fill-rule:nonzero;fill:rgb(13.72549%,16.078431%,34.509804%);fill-opacity:1;" d="M 310.007812 159.59375 C 294.667969 159.53125 279.328125 159.484375 263.984375 159.359375 C 262.425781 159.34375 262.457031 160.144531 262.316406 161.25 C 261.417969 168.003906 260.820312 174.824219 259.417969 181.488281 C 254.835938 203.425781 243.039062 221.273438 226.546875 235.949219 C 207.207031 253.179688 183.851562 260.535156 158.304688 261.324219 C 146.757812 261.6875 135.511719 259.152344 124.535156 255.703125 C 102.988281 248.945312 85.429688 236.644531 72.609375 217.933594 C 62.117188 202.609375 56.273438 185.503906 53.800781 167.1875 C 53.488281 164.855469 53.265625 162.523438 53 160.066406 C 36.714844 160.066406 20.679688 160.066406 4.378906 160.066406 C 4.597656 162.933594 4.679688 165.5625 5.023438 168.164062 C 6.238281 177.015625 6.992188 185.976562 8.914062 194.6875 C 14.175781 218.515625 25.308594 239.527344 40.839844 258.253906 C 55.171875 275.546875 73.316406 287.847656 93.382812 297.40625 C 110.03125 305.34375 127.527344 310.464844 146.082031 311.140625 C 158.777344 311.597656 171.5 311.960938 184.023438 309.3125 C 192.179688 307.597656 200.324219 305.597656 208.246094 303.015625 C 215.003906 300.808594 221.617188 297.957031 227.917969 294.667969 C 234.109375 291.4375 240 287.546875 245.730469 283.515625 C 264.363281 270.410156 279.765625 254.238281 291.34375 234.550781 C 302.132812 216.199219 308.558594 196.386719 310.527344 175.171875 C 311 170.070312 311.015625 164.917969 311.234375 159.703125 C 310.621094 159.65625 310.320312 159.609375 310.007812 159.59375 Z M 310.007812 159.59375 "/>
<path style=" stroke:none;fill-rule:nonzero;fill:rgb(100%,100%,100%);fill-opacity:1;" d="M 88.894531 259.574219 C 89.238281 260.394531 89.476562 261.308594 89.980469 262.015625 C 92.3125 265.355469 89.554688 270.554688 85.285156 271.386719 C 85.019531 271.433594 84.515625 271.402344 84.484375 271.292969 C 84.058594 269.90625 83.570312 268.507812 83.429688 267.089844 C 83.394531 266.742188 84.609375 266.300781 85.222656 265.875 C 85.835938 265.433594 86.5625 265.039062 86.941406 264.441406 C 87.066406 264.238281 86.40625 263.339844 85.933594 262.976562 C 85.160156 262.394531 84.183594 262.222656 83.460938 263.054688 C 82.625 264.03125 81.882812 265.105469 81.144531 266.175781 C 79.554688 268.457031 77.992188 270.757812 76.417969 273.058594 C 75.742188 274.035156 74.828125 274.113281 74.136719 273.011719 C 72.574219 270.539062 70.953125 268.082031 69.757812 265.433594 C 68.101562 261.78125 67.835938 257.828125 68.417969 253.875 C 68.765625 251.511719 69.394531 251.242188 71.742188 251.558594 C 74.6875 251.953125 77.378906 252.992188 79.996094 254.332031 C 80.796875 254.742188 81.742188 254.898438 82.609375 255.179688 C 82.703125 255.023438 82.8125 254.867188 82.90625 254.710938 C 82.453125 254.203125 82.042969 253.667969 81.554688 253.210938 C 78.339844 250.203125 75.113281 247.226562 71.898438 244.203125 C 71.222656 243.574219 70.621094 243.195312 69.789062 243.90625 C 65.960938 247.164062 62.085938 250.394531 58.289062 253.699219 C 55.503906 256.109375 55.582031 256.140625 53.945312 252.835938 C 53.359375 251.667969 53.566406 250.882812 54.574219 250.125 C 58.257812 247.371094 61.929688 244.582031 65.597656 241.808594 C 65.945312 241.542969 66.292969 241.304688 66.621094 241.023438 C 68.132812 239.746094 68.117188 239.445312 66.890625 237.886719 C 63.945312 234.09375 61.535156 229.964844 59.425781 225.648438 C 58.558594 223.886719 58.117188 223.570312 56.320312 224.40625 C 53.769531 225.601562 51.265625 226.925781 48.730469 228.171875 C 48.179688 228.4375 47.597656 228.675781 46.996094 228.863281 C 45.660156 229.289062 45.390625 229.996094 46.460938 230.847656 C 48.699219 232.597656 51.046875 234.1875 53.945312 234.644531 C 54.839844 234.785156 55.769531 234.894531 56.652344 234.785156 C 57.109375 234.722656 57.675781 234.21875 57.851562 233.792969 C 57.945312 233.558594 57.410156 232.878906 57 232.675781 C 56.148438 232.25 55.21875 231.980469 54.304688 231.683594 C 53.203125 231.320312 52.902344 230.691406 53.375 229.601562 C 54.761719 226.40625 56.589844 226.152344 58.667969 228.972656 C 59.503906 230.109375 60.210938 231.367188 60.859375 232.644531 C 61.03125 232.972656 60.84375 233.574219 60.667969 233.980469 C 60.210938 235.070312 59.613281 236.09375 59.15625 237.179688 C 58.859375 237.871094 58.542969 238.125 57.738281 237.933594 C 57.1875 237.808594 56.558594 237.984375 55.976562 238.09375 C 54.636719 238.359375 53.28125 238.960938 51.960938 238.894531 C 47.4375 238.691406 43.738281 236.707031 41.125 233.003906 C 40.554688 232.203125 40.652344 230.941406 40.476562 229.886719 C 40.082031 227.367188 41.15625 226.074219 43.597656 225.210938 C 47.519531 223.824219 51.28125 221.996094 55.125 220.390625 C 56.480469 219.824219 56.699219 219.273438 55.992188 217.964844 C 55.785156 217.585938 55.519531 217.238281 55.328125 216.847656 C 54.839844 215.839844 54.953125 214.941406 56.039062 214.421875 C 57.109375 213.917969 57.785156 214.46875 58.195312 215.429688 C 58.9375 217.144531 59.644531 218.878906 60.402344 220.59375 C 63.722656 228.15625 68.164062 234.972656 73.300781 241.449219 C 78.875 248.488281 85.695312 254.03125 93.238281 258.648438 C 98.074219 261.609375 103.445312 263.71875 108.613281 266.144531 C 109.683594 266.648438 110.375 267.105469 109.839844 268.378906 C 109.367188 269.5 108.597656 269.671875 107.226562 268.960938 C 104.691406 267.671875 104.644531 267.640625 103.554688 270.113281 C 101.667969 274.363281 99.808594 278.617188 98.011719 282.902344 C 96.671875 286.113281 96.390625 286.210938 93.855469 283.910156 C 92.261719 282.460938 92.40625 282.539062 93.492188 280.539062 C 95.257812 277.292969 96.800781 273.941406 98.421875 270.632812 C 98.941406 269.5625 99.460938 268.472656 99.917969 267.371094 C 100.328125 266.394531 100.042969 265.640625 99.066406 265.089844 C 96.421875 263.542969 93.808594 261.953125 91.175781 260.394531 C 90.53125 260.015625 89.855469 259.671875 89.191406 259.324219 C 89.113281 259.371094 89.003906 259.464844 88.894531 259.574219 Z M 72.183594 260.269531 C 72.121094 260.285156 72.039062 260.300781 71.976562 260.316406 C 72.355469 261.9375 72.671875 263.578125 73.128906 265.183594 C 73.269531 265.671875 73.726562 266.316406 74.136719 266.394531 C 74.496094 266.472656 75.097656 265.9375 75.425781 265.527344 C 76.703125 263.984375 77.882812 262.347656 79.175781 260.804688 C 80.074219 259.734375 80.027344 259.007812 78.671875 258.550781 C 77.097656 258.015625 75.441406 257.671875 73.789062 257.386719 C 72.65625 257.183594 72.101562 257.859375 72.121094 258.992188 C 72.101562 259.402344 72.152344 259.828125 72.183594 260.269531 Z M 72.183594 260.269531 "/>
<path style=" stroke:none;fill-rule:nonzero;fill:rgb(100%,100%,100%);fill-opacity:1;" d="M 284.175781 224.40625 C 282.304688 224.105469 281.734375 224.753906 282.097656 226.625 C 282.175781 227.066406 282.066406 227.855469 281.785156 228.011719 C 281.390625 228.21875 280.726562 228.074219 280.222656 227.917969 C 279.910156 227.808594 279.609375 227.445312 279.4375 227.113281 C 278.128906 224.722656 276.773438 222.359375 275.59375 219.902344 C 275.042969 218.765625 274.507812 218.421875 273.261719 218.878906 C 272.160156 219.273438 270.964844 219.429688 269.78125 219.507812 C 268.804688 219.585938 268.269531 220.011719 268.082031 220.925781 C 268.003906 221.351562 268.097656 221.902344 267.859375 222.167969 C 267.339844 222.753906 266.695312 223.226562 266.035156 223.632812 C 265.859375 223.746094 265.183594 223.445312 265.183594 223.367188 C 265.261719 222.640625 265.433594 221.917969 265.59375 221.207031 C 265.609375 221.128906 265.71875 221.050781 265.75 220.972656 C 266.960938 218.375 268.238281 215.804688 269.339844 213.175781 C 269.515625 212.75 269.058594 211.820312 268.617188 211.429688 C 267.984375 210.859375 267.136719 210.972656 266.648438 211.789062 C 266.269531 212.40625 265.953125 213.050781 265.6875 213.710938 C 262.976562 220.40625 259.65625 226.753906 255.464844 232.644531 C 251.085938 238.832031 245.921875 244.328125 240.0625 249.101562 C 233.019531 254.820312 225.585938 259.984375 217.285156 263.8125 C 211.789062 266.347656 206.277344 268.757812 200.464844 270.441406 C 199.519531 270.710938 198.609375 270.996094 199 272.238281 C 199.378906 273.421875 200.371094 273.546875 201.347656 273.152344 C 204.386719 271.972656 207.378906 270.710938 210.402344 269.515625 C 211.679688 269.011719 212.988281 268.554688 214.359375 268.050781 C 214.359375 268.394531 214.390625 268.523438 214.359375 268.585938 C 214.214844 268.773438 214.042969 268.929688 213.871094 269.089844 C 211.050781 271.828125 208.214844 274.523438 205.441406 277.292969 C 204.199219 278.539062 204.308594 279.34375 205.742188 280.367188 C 207.882812 281.910156 210.042969 283.34375 212.625 284.160156 C 216.910156 285.515625 221.242188 285.375 225.601562 284.886719 C 226.691406 284.761719 227.066406 284.050781 226.59375 283.011719 C 226.375 282.539062 226.089844 282.082031 225.871094 281.609375 C 224.34375 278.460938 222.816406 275.308594 221.289062 272.175781 C 220.703125 270.980469 221.492188 270.300781 222.296875 269.828125 C 222.878906 269.5 223.664062 269.546875 224.375 269.417969 C 224.453125 270.207031 224.800781 271.074219 224.578125 271.78125 C 224.074219 273.4375 224.234375 273.988281 225.871094 274.632812 C 226.359375 274.820312 226.878906 274.964844 227.367188 275.152344 C 228.46875 275.59375 229.082031 275.199219 229.429688 274.113281 C 230.171875 271.828125 229.460938 269.183594 227.714844 267.546875 C 226.203125 266.128906 224.390625 265.734375 222.421875 265.703125 C 221.949219 265.6875 221.476562 265.65625 221.003906 265.625 C 220.972656 265.480469 220.941406 265.339844 220.910156 265.199219 C 222.121094 264.472656 223.335938 263.734375 224.5625 263.023438 C 226.546875 261.875 228.53125 260.710938 230.5625 259.621094 C 231.066406 259.355469 231.777344 259.117188 232.234375 259.277344 C 232.53125 259.386719 232.722656 260.253906 232.691406 260.773438 C 232.5 265.578125 235.527344 270.410156 239.917969 272.507812 C 244.441406 274.664062 249.984375 271.921875 252.171875 268.082031 C 253.605469 265.546875 252.457031 263.625 249.589844 263.402344 C 249.164062 263.371094 248.738281 263.277344 248.316406 263.214844 C 247.117188 263.007812 246.597656 263.542969 246.644531 264.710938 C 246.660156 265.136719 246.707031 265.578125 246.675781 266 C 246.488281 269.183594 243.164062 270.929688 240.644531 269.011719 C 239.480469 268.128906 238.472656 266.773438 237.902344 265.417969 C 235.746094 260.300781 237.605469 254.253906 241.871094 250.898438 C 241.886719 250.898438 241.886719 250.882812 241.902344 250.882812 C 242.296875 250.566406 242.707031 250.285156 243.148438 250.03125 C 244.660156 248.960938 245.984375 247.890625 245.984375 247.890625 C 246.753906 247.007812 247.402344 246.265625 248.078125 245.558594 C 248.769531 244.832031 249.433594 244.0625 250.234375 243.480469 C 250.597656 243.210938 251.242188 243.304688 251.746094 243.226562 L 252.425781 244.847656 C 251.84375 244.613281 251.371094 244.800781 251.007812 245.070312 C 250.773438 245.335938 250.488281 245.589844 250.316406 245.890625 C 250.898438 248.472656 247.9375 248.363281 247.9375 248.363281 C 244.722656 248.929688 244.472656 253.039062 244.457031 253.210938 C 244.644531 256.695312 246.867188 259.023438 249.859375 260.191406 C 253.527344 261.625 257.070312 259.023438 258.078125 256.503906 C 258.378906 255.765625 258.222656 254.316406 257.703125 253.921875 C 256.945312 253.324219 255.667969 253.179688 254.628906 253.246094 C 254.332031 253.261719 253.96875 254.628906 253.890625 255.402344 C 253.734375 256.804688 252.820312 257.84375 251.667969 257.6875 C 250.628906 257.542969 249.953125 256.285156 250.21875 254.960938 C 250.644531 252.976562 251.78125 251.589844 253.734375 250.945312 C 254.867188 250.566406 255.511719 249.90625 255.355469 248.597656 C 255.308594 248.203125 255.605469 247.746094 255.75 247.339844 C 256.15625 247.511719 256.660156 247.589844 256.976562 247.890625 C 258.566406 249.339844 260.109375 250.867188 261.6875 252.332031 C 264.535156 255.007812 264.535156 255.007812 267.921875 253.101562 C 269.261719 252.347656 269.339844 251.558594 268.128906 250.582031 C 264.082031 247.273438 260.015625 243.984375 255.953125 240.691406 C 254.363281 239.398438 254.332031 238.894531 255.574219 237.289062 C 256.882812 235.636719 258.222656 233.996094 259.371094 232.234375 C 260.472656 230.5625 260.960938 230.484375 262.078125 232.171875 C 262.316406 232.53125 262.601562 232.863281 262.851562 233.210938 C 264.410156 235.335938 268.332031 235.195312 269.65625 232.546875 C 269.84375 232.171875 270.019531 231.730469 270.300781 231.429688 C 270.632812 231.066406 271.136719 230.5625 271.484375 230.613281 C 271.859375 230.675781 272.363281 231.257812 272.445312 231.683594 C 272.773438 233.414062 273.027344 235.179688 273.152344 236.941406 C 273.199219 237.605469 272.867188 238.359375 272.523438 238.960938 C 271.972656 239.933594 271.011719 240.015625 270.269531 239.179688 C 269.921875 238.800781 269.6875 238.296875 269.515625 237.808594 C 269.167969 236.894531 268.804688 235.699219 267.65625 235.996094 C 266.238281 236.375 264.945312 237.210938 263.65625 237.949219 C 263.496094 238.046875 263.59375 238.910156 263.828125 239.273438 C 264.679688 240.644531 265.71875 241.953125 267.480469 242 C 269.230469 242.03125 271.089844 242.078125 272.726562 241.574219 C 276.804688 240.28125 278.917969 235.132812 277.230469 231.226562 C 276.871094 230.390625 276.617188 229.523438 276.191406 228.359375 C 277.136719 228.847656 277.8125 229.117188 278.414062 229.492188 C 281.65625 231.570312 285.011719 230.011719 285.53125 226.171875 C 285.65625 225.113281 285.214844 224.5625 284.175781 224.40625 Z M 220.199219 281.609375 C 220.183594 281.6875 220.152344 281.765625 220.105469 281.832031 C 220.089844 281.863281 220.058594 281.894531 220.027344 281.910156 C 219.949219 281.988281 219.839844 282.050781 219.695312 282.113281 C 219.648438 282.128906 219.601562 282.144531 219.570312 282.160156 C 219.335938 282.238281 219.066406 282.320312 218.800781 282.414062 C 218.042969 282.113281 217.253906 281.847656 216.5 281.5625 C 216.246094 281.46875 215.980469 281.375 215.726562 281.277344 C 215.222656 281.089844 214.703125 280.886719 214.199219 280.679688 C 213.835938 280.523438 213.460938 280.367188 213.097656 280.191406 C 212.972656 280.128906 212.828125 280.066406 212.703125 280.003906 C 212.4375 279.878906 212.214844 279.71875 212.042969 279.5625 C 211.980469 279.515625 211.933594 279.453125 211.882812 279.40625 C 211.742188 279.230469 211.648438 279.058594 211.601562 278.855469 C 211.570312 278.726562 211.554688 278.585938 211.554688 278.460938 C 211.554688 278.398438 211.570312 278.316406 211.570312 278.253906 C 211.585938 278.144531 211.617188 278.019531 211.664062 277.910156 C 211.773438 277.59375 211.980469 277.261719 212.261719 276.949219 C 212.84375 276.269531 213.429688 275.578125 214.042969 274.917969 C 214.277344 274.664062 214.515625 274.414062 214.75 274.175781 C 214.828125 274.097656 214.894531 274.035156 214.972656 273.972656 C 215.316406 273.671875 215.664062 273.53125 215.996094 273.53125 C 216.167969 273.53125 216.328125 273.578125 216.46875 273.65625 C 216.5625 273.703125 216.671875 273.78125 216.75 273.859375 C 216.941406 274.035156 217.097656 274.269531 217.238281 274.585938 C 218.214844 276.695312 219.191406 278.820312 220.074219 280.980469 C 220.199219 281.230469 220.230469 281.453125 220.199219 281.609375 Z M 274.664062 227.476562 C 274.035156 227.304688 273.355469 227.226562 272.773438 226.972656 C 271.183594 226.28125 269.640625 226.707031 268.160156 227.226562 C 267.765625 227.367188 267.546875 228.21875 267.433594 228.769531 C 267.371094 229.066406 267.890625 229.476562 267.859375 229.792969 C 267.78125 230.375 267.496094 230.941406 267.292969 231.523438 C 266.773438 231.289062 265.953125 231.179688 265.8125 230.816406 C 265.417969 229.761719 265.167969 228.609375 265.121094 227.492188 C 265.089844 226.484375 265.84375 225.964844 266.882812 226.058594 C 268.394531 226.203125 269.671875 225.949219 270.742188 224.691406 C 271.515625 223.792969 272.585938 223.902344 273.386719 224.816406 C 273.988281 225.523438 274.460938 226.34375 274.996094 227.097656 C 274.882812 227.226562 274.773438 227.351562 274.664062 227.476562 Z M 274.664062 227.476562 "/>
<path style=" stroke:none;fill-rule:nonzero;fill:rgb(100%,100%,100%);fill-opacity:1;" d="M 190.007812 275.609375 C 190.039062 275.53125 190.070312 275.46875 190.070312 275.390625 C 190.085938 274.964844 189.820312 274.316406 189.472656 274.019531 C 189.410156 273.957031 189.347656 273.910156 189.269531 273.890625 C 188.527344 273.625 187.597656 273.578125 186.8125 273.75 C 185.992188 273.941406 185.441406 273.910156 185.09375 273.453125 C 184.9375 273.246094 184.828125 272.949219 184.730469 272.554688 C 184.589844 271.875 184.304688 271.277344 183.914062 270.773438 C 183.140625 269.78125 181.929688 269.183594 180.542969 269.105469 C 180.101562 269.089844 179.691406 269.105469 179.265625 269.152344 C 177.675781 269.355469 176.242188 270.066406 174.824219 270.835938 C 173.863281 271.355469 173.3125 271.167969 172.683594 270.269531 C 172.148438 269.515625 171.40625 268.804688 170.605469 268.347656 C 168.636719 267.230469 166.367188 266.742188 164.128906 266.820312 C 161.453125 266.914062 158.808594 267.8125 156.679688 269.433594 C 156.207031 269.796875 155.75 270.191406 155.328125 270.632812 C 154.980469 270.996094 154.726562 271.355469 154.585938 271.71875 C 154.585938 271.734375 154.585938 271.75 154.570312 271.75 C 154.367188 272.347656 154.460938 272.980469 154.964844 273.6875 C 155.152344 273.957031 155.246094 274.300781 155.328125 274.632812 C 155.375 274.789062 155.40625 274.949219 155.46875 275.105469 C 154.933594 275.230469 154.398438 275.484375 153.878906 275.453125 C 150.429688 275.230469 146.980469 274.949219 143.546875 274.664062 C 143.105469 274.632812 142.664062 274.554688 142.238281 274.460938 C 141.921875 274.398438 141.609375 274.316406 141.292969 274.238281 C 140.695312 274.082031 140.425781 273.75 140.457031 273.152344 C 140.457031 273.136719 140.457031 273.136719 140.457031 273.121094 C 140.457031 273.027344 140.472656 272.933594 140.488281 272.835938 C 140.539062 272.570312 140.554688 272.285156 140.554688 272.003906 C 140.554688 271.53125 140.472656 271.042969 140.347656 270.601562 C 139.371094 267.292969 136.976562 265.324219 133.90625 264.144531 C 133.84375 264.128906 133.796875 264.097656 133.75 264.082031 C 129.953125 262.679688 126.21875 262.726562 122.707031 264.992188 C 122.582031 265.074219 122.472656 265.152344 122.363281 265.230469 C 121.761719 265.671875 121.386719 266.128906 121.210938 266.648438 C 121.007812 267.246094 121.085938 267.9375 121.402344 268.835938 C 121.402344 268.851562 121.417969 268.882812 121.417969 268.898438 C 121.417969 268.898438 121.417969 268.914062 121.417969 268.914062 C 121.527344 269.214844 121.574219 269.53125 121.714844 270.097656 C 121.730469 270.160156 121.746094 270.238281 121.761719 270.316406 C 120.960938 270.175781 120.519531 270.097656 120.0625 270.003906 C 119.859375 269.953125 119.667969 269.9375 119.496094 269.9375 C 118.707031 269.9375 118.328125 270.378906 118.28125 271.371094 C 118.265625 271.734375 118.3125 272.019531 118.410156 272.253906 C 118.488281 272.445312 118.582031 272.601562 118.722656 272.726562 C 118.976562 272.964844 119.320312 273.105469 119.714844 273.199219 C 119.9375 273.246094 120.1875 273.277344 120.441406 273.308594 C 121.480469 273.421875 122.125 273.59375 122.457031 273.972656 C 122.820312 274.398438 122.820312 275.058594 122.550781 276.191406 C 122.457031 276.632812 122.347656 277.058594 122.234375 277.484375 C 121.9375 278.648438 121.621094 279.796875 121.304688 280.964844 C 121.226562 281.230469 121.164062 281.484375 121.085938 281.75 C 120.945312 282.238281 120.816406 282.742188 120.691406 283.246094 C 120.457031 284.160156 120.234375 285.089844 119.984375 286.003906 C 119.683594 287.136719 119.351562 288.257812 118.960938 289.34375 C 118.394531 290.886719 118.1875 291.3125 118.929688 292.035156 C 119.148438 292.242188 119.449219 292.476562 119.859375 292.777344 C 120.171875 293.011719 120.488281 293.25 120.816406 293.453125 C 120.898438 293.5 120.976562 293.546875 121.039062 293.578125 C 122.378906 294.289062 123.289062 293.988281 123.683594 292.730469 C 123.730469 292.570312 123.777344 292.398438 123.8125 292.195312 C 124 291.105469 124.1875 290.003906 124.410156 288.917969 C 124.457031 288.648438 124.519531 288.367188 124.582031 288.097656 C 125.417969 284.207031 126.316406 280.335938 127.117188 276.445312 C 127.179688 276.144531 127.246094 275.910156 127.324219 275.71875 C 127.605469 275.011719 128.03125 274.933594 129.085938 275.230469 C 129.667969 275.40625 130.285156 275.53125 130.882812 275.65625 C 131.308594 275.75 131.71875 275.84375 132.140625 275.941406 C 132.332031 275.988281 132.519531 276.035156 132.695312 276.082031 C 133.167969 276.207031 133.8125 276.429688 133.953125 276.773438 C 133.96875 276.820312 133.984375 276.871094 133.984375 276.917969 C 133.984375 276.949219 133.984375 276.980469 133.984375 277.011719 C 133.96875 277.359375 133.71875 277.796875 133.558594 278.160156 C 133.480469 278.316406 133.339844 278.445312 133.199219 278.585938 C 133.085938 278.695312 132.976562 278.804688 132.945312 278.949219 C 132.835938 279.375 132.695312 279.863281 132.710938 280.285156 C 132.710938 280.320312 132.710938 280.351562 132.726562 280.367188 C 132.742188 280.476562 132.757812 280.585938 132.789062 280.679688 C 132.882812 280.933594 133.796875 280.949219 134.332031 280.902344 C 135.230469 280.808594 136.113281 280.429688 137.007812 280.429688 C 137.640625 280.429688 138.113281 280.695312 138.378906 281.058594 C 138.503906 281.246094 138.585938 281.453125 138.601562 281.671875 C 138.601562 281.910156 138.519531 282.160156 138.332031 282.398438 C 138.300781 282.445312 138.253906 282.492188 138.207031 282.539062 C 137.277344 283.4375 136.285156 284.273438 135.277344 285.089844 C 134.695312 285.5625 134.09375 286.035156 133.511719 286.492188 C 133.480469 286.523438 133.433594 286.554688 133.386719 286.570312 C 133.007812 286.824219 132.566406 286.964844 132.140625 287.167969 C 132 287.234375 131.859375 287.3125 131.71875 287.40625 C 131.402344 287.609375 131.039062 288.066406 131.054688 288.382812 C 131.070312 288.554688 131.214844 288.730469 131.386719 288.902344 C 131.527344 289.027344 131.703125 289.152344 131.859375 289.234375 C 132.015625 289.3125 132.175781 289.390625 132.347656 289.46875 C 132.789062 289.660156 133.230469 289.832031 133.671875 290.019531 C 133.734375 290.050781 133.78125 290.066406 133.84375 290.082031 C 135.765625 290.933594 137.671875 290.871094 139.230469 289.453125 C 139.6875 289.042969 140.097656 288.570312 140.488281 288.097656 C 141.152344 287.296875 141.765625 286.429688 142.441406 285.65625 C 142.539062 285.546875 142.648438 285.453125 142.757812 285.375 C 143.027344 285.167969 143.324219 285.011719 143.609375 284.824219 C 143.6875 284.777344 143.765625 284.726562 143.84375 284.679688 C 143.953125 284.917969 144.097656 285.136719 144.238281 285.375 C 144.441406 285.703125 144.617188 286.050781 144.617188 286.382812 C 144.585938 287.878906 144.460938 289.375 144.316406 290.871094 C 144.269531 291.328125 144.222656 291.800781 144.175781 292.257812 C 144.082031 293.15625 144.003906 293.816406 144.003906 294.351562 C 144.003906 294.777344 144.035156 295.109375 144.144531 295.40625 C 144.425781 296.195312 145.183594 296.621094 146.882812 297.582031 C 146.914062 297.597656 146.964844 297.628906 147.011719 297.644531 C 147.5 297.878906 147.875 297.957031 148.175781 297.847656 C 148.554688 297.707031 148.757812 297.28125 148.804688 296.574219 C 149.230469 291.074219 149.65625 285.578125 150.082031 280.097656 C 150.160156 279.027344 150.398438 278.554688 151.058594 278.445312 C 151.359375 278.398438 151.75 278.414062 152.253906 278.476562 C 153.027344 278.585938 153.796875 278.695312 154.570312 278.773438 C 154.933594 278.804688 155.3125 278.839844 155.671875 278.855469 C 155.863281 278.855469 156.035156 278.871094 156.191406 278.902344 C 157.5 279.042969 157.925781 279.59375 157.894531 281.042969 C 157.894531 281.121094 157.894531 281.199219 157.878906 281.277344 C 157.878906 281.3125 157.878906 281.34375 157.878906 281.375 C 157.734375 283.941406 157.59375 286.507812 157.484375 289.074219 C 157.390625 290.964844 157.3125 292.855469 157.230469 294.746094 C 157.214844 295.203125 157.199219 295.597656 157.199219 295.925781 C 157.199219 296.761719 157.296875 297.21875 157.625 297.535156 C 158.003906 297.910156 158.726562 298.085938 159.988281 298.414062 C 160.128906 298.445312 160.273438 298.492188 160.414062 298.527344 C 161.074219 298.683594 161.546875 298.589844 161.832031 298.257812 C 162.050781 298.003906 162.160156 297.628906 162.179688 297.109375 C 162.226562 294.507812 162.289062 291.894531 162.335938 289.296875 C 162.335938 289.058594 162.351562 288.839844 162.351562 288.601562 C 162.398438 286.113281 162.445312 283.625 162.476562 281.136719 C 162.476562 280.742188 162.523438 280.398438 162.585938 280.128906 C 162.808594 279.277344 163.40625 278.980469 164.601562 279.042969 C 165.800781 279.105469 166.996094 279.121094 168.195312 279.089844 C 169.011719 279.074219 169.546875 279.183594 169.847656 279.546875 C 169.847656 279.546875 169.863281 279.5625 169.863281 279.5625 C 170.085938 279.847656 170.195312 280.253906 170.195312 280.855469 C 170.195312 283.421875 170.195312 285.988281 170.179688 288.570312 C 170.164062 290.367188 170.148438 292.164062 170.101562 293.957031 C 170.070312 295.421875 170.777344 296.730469 171.847656 297.613281 C 173.0625 298.605469 174.746094 299.03125 176.304688 298.445312 C 179.265625 297.359375 181.929688 295.800781 184.304688 293.722656 C 184.574219 293.484375 184.828125 293.25 185.0625 293.027344 C 186.9375 291.140625 187.867188 289.121094 187.820312 287.011719 C 187.820312 286.886719 187.804688 286.746094 187.804688 286.617188 C 187.660156 284.902344 186.875 283.136719 185.441406 281.34375 C 184.054688 279.625 182.746094 279.105469 180.792969 279.925781 C 179.628906 280.414062 178.605469 281.296875 177.660156 282.160156 C 177.441406 282.351562 177.457031 282.996094 177.597656 283.4375 C 177.597656 283.453125 177.613281 283.484375 177.613281 283.5 C 177.628906 283.5625 177.660156 283.625 177.691406 283.671875 C 177.847656 283.941406 178.070312 284.191406 178.320312 284.429688 C 178.335938 284.445312 178.367188 284.460938 178.382812 284.476562 C 178.621094 284.679688 178.871094 284.871094 179.125 285.027344 C 179.769531 285.453125 180.257812 285.5625 180.683594 285.359375 C 180.9375 285.234375 181.171875 284.996094 181.394531 284.648438 C 181.441406 284.570312 181.503906 284.476562 181.550781 284.382812 C 181.597656 284.289062 181.644531 284.207031 181.691406 284.113281 C 181.867188 283.769531 182.054688 283.4375 182.289062 283.136719 C 182.351562 283.074219 182.402344 282.996094 182.464844 282.933594 C 183.265625 282.128906 184.210938 282.414062 184.289062 283.546875 C 184.289062 283.671875 184.304688 283.785156 184.304688 283.910156 C 184.320312 284.554688 184.257812 285.214844 184.117188 285.832031 C 184.070312 286.050781 184.007812 286.273438 183.929688 286.476562 C 182.824219 289.53125 180.132812 291.074219 177.613281 292.730469 C 176.335938 293.578125 175.675781 293.234375 175.519531 291.707031 C 175.34375 290.082031 175.1875 288.460938 175.015625 286.839844 C 174.824219 284.933594 174.636719 283.011719 174.460938 281.105469 C 174.445312 280.902344 174.429688 280.726562 174.429688 280.554688 C 174.414062 279.390625 174.871094 279.027344 176.304688 278.804688 C 178.132812 278.539062 179.960938 278.285156 181.785156 278.019531 C 182.808594 277.878906 183.816406 277.71875 184.84375 277.546875 C 186.210938 277.324219 187.566406 276.980469 188.890625 276.539062 C 188.9375 276.523438 189 276.492188 189.0625 276.476562 C 189.234375 276.398438 189.425781 276.253906 189.582031 276.113281 C 189.804688 275.925781 189.929688 275.75 190.007812 275.609375 Z M 138.332031 273.8125 C 135.070312 273.183594 131.8125 272.617188 128.582031 271.84375 C 127.90625 271.6875 126.976562 270.789062 126.945312 270.175781 C 126.914062 269.609375 127.828125 268.554688 128.457031 268.441406 C 130.835938 268.019531 133.261719 267.625 135.65625 267.71875 C 137.578125 267.78125 137.90625 269.089844 136.695312 270.632812 C 136 271.515625 136.238281 272.113281 137.199219 272.539062 C 137.65625 272.742188 138.113281 272.933594 138.554688 273.136719 C 138.472656 273.355469 138.394531 273.578125 138.332031 273.8125 Z M 143.671875 280.886719 C 143.53125 280.871094 143.386719 280.886719 143.246094 280.886719 C 141.765625 280.871094 140.773438 280.367188 140.269531 279.40625 C 140.191406 279.261719 140.144531 279.121094 140.082031 278.964844 C 139.71875 277.847656 140.144531 277.308594 141.292969 277.40625 C 142.097656 277.46875 142.898438 277.609375 143.703125 277.640625 C 144.882812 277.671875 145.65625 278.128906 145.625 279.421875 C 145.609375 280.679688 144.757812 280.964844 143.671875 280.886719 Z M 181.15625 274.191406 C 179.359375 274.917969 177.472656 275.53125 175.550781 275.8125 C 173.25 276.160156 170.886719 276.128906 168.683594 276.253906 C 166.699219 276.050781 164.871094 276.003906 163.089844 275.640625 C 162.320312 275.484375 161.691406 274.664062 160.996094 274.144531 C 161.53125 273.46875 161.925781 272.570312 162.617188 272.160156 C 163.832031 271.433594 165.21875 270.945312 166.554688 270.492188 C 167.515625 270.160156 168.226562 270.554688 168.507812 271.609375 C 169.15625 273.941406 170.621094 275.355469 173.140625 275.324219 C 173.863281 275.324219 174.667969 275.167969 175.3125 274.851562 C 176.886719 274.050781 178.367188 273.074219 179.914062 272.222656 C 180.589844 271.84375 181.550781 271.230469 181.992188 272.253906 C 182.226562 272.726562 181.660156 273.988281 181.15625 274.191406 Z M 181.15625 274.191406 "/>
<path style=" stroke:none;fill-rule:nonzero;fill:rgb(0%,0%,0%);fill-opacity:1;" d="M 122.582031 18.492188 C 117.320312 18.585938 109.605469 20.476562 104.863281 22.757812 C 103.808594 23.261719 103.746094 23.859375 104.125 24.902344 C 105.746094 29.5 107.273438 34.144531 108.816406 38.777344 C 110.453125 43.722656 112.046875 48.683594 113.714844 53.613281 C 114.015625 54.496094 114.296875 55.472656 115.730469 55.03125 C 119.589844 53.816406 123.527344 52.855469 127.355469 51.535156 C 132.898438 49.613281 136.585938 45.722656 138.097656 40.019531 C 141.246094 28.113281 135.214844 18.082031 122.582031 18.492188 Z M 189.472656 18.820312 C 184.480469 18.804688 179.863281 19.859375 176.304688 23.671875 C 173.140625 27.058594 171.941406 31.246094 171.941406 35.738281 C 171.957031 43.328125 174.527344 48.652344 181.265625 51.675781 C 184.589844 53.171875 188.402344 53.613281 192.039062 54.367188 C 194.292969 54.824219 194.984375 54.054688 195.09375 51.421875 C 195.191406 49.21875 193.503906 50.242188 192.605469 50.195312 C 183.171875 49.707031 176.039062 44.746094 177.613281 33.671875 C 178.335938 28.554688 182.714844 23.027344 189.269531 23.121094 C 193.472656 23.183594 197.238281 24.222656 200.71875 26.507812 C 202.511719 27.6875 203.175781 26.269531 203.960938 25.027344 C 204.84375 23.625 203.992188 23.011719 202.9375 22.492188 C 198.703125 20.394531 194.308594 18.820312 189.472656 18.820312 Z M 161.183594 14.113281 C 158.664062 14.617188 156.113281 14.976562 153.640625 15.640625 C 146.820312 17.464844 142.378906 22.867188 142.175781 29.894531 C 141.953125 37.027344 143.84375 43.3125 150.429688 47.25 C 154.097656 49.4375 158.207031 49.863281 162.335938 49.785156 C 164.035156 49.753906 165.753906 49.21875 167.390625 48.730469 C 168.902344 48.273438 168.304688 46.933594 168.226562 45.925781 C 168.117188 44.714844 167.203125 44.917969 166.335938 44.980469 C 164.351562 45.125 162.351562 45.265625 160.367188 45.234375 C 154.871094 45.15625 150.996094 42.539062 148.695312 37.546875 C 145.027344 29.53125 149.136719 20.507812 157.328125 19.152344 C 161.152344 18.523438 165.089844 18.773438 168.746094 20.238281 C 170.507812 20.949219 170.746094 19.921875 171.1875 18.820312 C 171.675781 17.578125 171.972656 16.378906 170.148438 15.984375 C 167.203125 15.371094 164.242188 14.757812 161.183594 14.113281 Z M 161.183594 14.113281 "/>
<path style=" stroke:none;fill-rule:nonzero;fill:rgb(13.72549%,16.078431%,34.509804%);fill-opacity:1;" d="M 261.308594 47.738281 C 261.101562 72.671875 260.945312 97.601562 260.773438 122.535156 C 260.773438 123.496094 260.773438 124.441406 260.773438 125.402344 C 260.617188 125.480469 260.457031 125.574219 260.300781 125.652344 C 259.96875 125.179688 259.558594 124.722656 259.339844 124.203125 C 250.109375 102.753906 236.328125 84.957031 216.972656 71.726562 C 204.96875 63.535156 191.582031 58.777344 177.21875 56.824219 C 173.34375 56.304688 169.4375 55.800781 165.53125 55.753906 C 153.988281 55.628906 142.425781 55.378906 131.261719 59.21875 C 119.402344 63.285156 108.46875 69.046875 98.5 76.640625 C 82.972656 88.46875 70.199219 102.878906 59.1875 118.914062 C 57 122.09375 54.839844 125.292969 52.652344 128.472656 C 52.589844 128.566406 52.433594 128.582031 52.132812 128.742188 C 52.054688 128.222656 51.910156 127.75 51.910156 127.292969 C 51.929688 119.101562 51.910156 110.910156 52.023438 102.738281 C 52.179688 90.359375 52.449219 77.992188 52.652344 65.613281 C 52.730469 60.148438 52.792969 54.683594 52.777344 49.203125 C 52.777344 47.40625 53.296875 46.039062 54.621094 44.761719 C 67.820312 32.082031 82.972656 22.492188 99.855469 15.402344 C 112.847656 9.953125 126.300781 6.566406 140.238281 4.835938 C 151.988281 3.386719 163.832031 3.164062 175.519531 4.078125 C 204.089844 6.332031 229.964844 15.890625 251.574219 35.390625 C 254.441406 37.972656 257.085938 40.808594 259.859375 43.5 C 261.039062 44.683594 261.324219 46.101562 261.308594 47.738281 Z M 261.308594 47.738281 "/>
<path style=" stroke:none;fill-rule:nonzero;fill:rgb(39.607843%,8.627451%,7.45098%);fill-opacity:1;" d="M 134.253906 116.125 C 133.542969 115.902344 132.804688 115.761719 132.140625 115.480469 C 122.25 111.273438 112.375 107.019531 102.484375 102.863281 C 97.679688 100.847656 97.648438 100.910156 98.183594 95.710938 C 98.421875 93.445312 98.65625 91.160156 98.957031 88.339844 C 111.085938 97.648438 122.804688 106.660156 134.535156 115.652344 C 134.425781 115.808594 134.347656 115.96875 134.253906 116.125 Z M 134.253906 116.125 "/>
<path style=" stroke:none;fill-rule:nonzero;fill:rgb(39.607843%,8.627451%,7.45098%);fill-opacity:1;" d="M 110.941406 81.585938 C 120.441406 91.695312 129.921875 101.792969 139.417969 111.902344 C 139.402344 112 139.386719 112.09375 139.371094 112.203125 C 138.789062 112 138.144531 111.902344 137.625 111.589844 C 129.558594 106.785156 121.527344 101.902344 113.445312 97.128906 C 111.335938 95.886719 110.140625 94.546875 110.4375 91.789062 C 110.800781 88.53125 110.519531 85.191406 110.519531 81.882812 C 110.660156 81.789062 110.800781 81.679688 110.941406 81.585938 Z M 110.941406 81.585938 "/>
<path style=" stroke:none;fill-rule:nonzero;fill:rgb(39.607843%,8.627451%,7.45098%);fill-opacity:1;" d="M 184.574219 114.328125 C 196.101562 105.917969 207.648438 97.507812 219.570312 88.796875 C 219.570312 92.375 219.617188 95.367188 219.523438 98.359375 C 219.507812 98.769531 218.894531 99.304688 218.421875 99.523438 C 211.917969 102.578125 205.394531 105.605469 198.875 108.628906 C 195.046875 110.390625 191.203125 112.140625 187.363281 113.871094 C 186.558594 114.234375 185.707031 114.472656 184.890625 114.769531 C 184.777344 114.628906 184.683594 114.472656 184.574219 114.328125 Z M 184.574219 114.328125 "/>
<path style=" stroke:none;fill-rule:nonzero;fill:rgb(39.607843%,8.627451%,7.45098%);fill-opacity:1;" d="M 207.882812 82.484375 C 207.882812 86.199219 207.964844 89.933594 207.804688 93.648438 C 207.773438 94.246094 206.828125 94.925781 206.152344 95.335938 C 200.277344 98.941406 194.371094 102.484375 188.480469 106.042969 C 185.503906 107.855469 182.527344 109.667969 179.535156 111.476562 C 179.390625 111.304688 179.234375 111.132812 179.09375 110.957031 C 188.496094 101.351562 197.914062 91.742188 207.316406 82.121094 C 207.507812 82.246094 207.695312 82.371094 207.882812 82.484375 Z M 207.882812 82.484375 "/>
<path style=" stroke:none;fill-rule:nonzero;fill:rgb(39.607843%,8.627451%,7.45098%);fill-opacity:1;" d="M 152.964844 104.707031 C 152.664062 104.089844 152.335938 103.476562 152.066406 102.847656 C 150.019531 97.917969 147.925781 93.003906 145.988281 88.027344 C 145.59375 87.003906 145.453125 85.695312 145.703125 84.640625 C 146.804688 80.089844 148.082031 75.570312 149.292969 71.046875 C 149.828125 69.078125 151.46875 70.117188 152.585938 69.914062 C 153.78125 69.695312 153.546875 70.796875 153.546875 71.535156 C 153.5625 81.996094 153.5625 92.453125 153.5625 102.925781 C 153.5625 103.492188 153.5 104.058594 153.46875 104.613281 C 153.308594 104.644531 153.136719 104.675781 152.964844 104.707031 Z M 152.964844 104.707031 "/>
<path style=" stroke:none;fill-rule:nonzero;fill:rgb(39.607843%,8.627451%,7.45098%);fill-opacity:1;" d="M 145.417969 110.34375 C 145.058594 110.125 144.664062 109.933594 144.332031 109.667969 C 139.058594 105.242188 133.84375 100.722656 128.503906 96.390625 C 126.363281 94.65625 125.164062 92.800781 125.355469 89.902344 C 125.574219 86.71875 125.308594 83.492188 125.277344 80.277344 C 125.277344 80.011719 125.417969 79.742188 125.667969 78.921875 C 132.566406 89.507812 139.230469 99.714844 145.890625 109.917969 C 145.734375 110.078125 145.578125 110.21875 145.417969 110.34375 Z M 145.417969 110.34375 "/>
<path style=" stroke:none;fill-rule:nonzero;fill:rgb(39.607843%,8.627451%,7.45098%);fill-opacity:1;" d="M 161.691406 107.035156 C 160.242188 107.035156 158.949219 107.035156 157.578125 107.035156 C 157.578125 105.351562 157.578125 103.824219 157.578125 102.296875 C 157.59375 92.375 157.59375 82.453125 157.609375 72.511719 C 157.609375 69.773438 157.28125 69.835938 160.175781 69.945312 C 160.632812 69.960938 161.089844 69.945312 161.671875 69.945312 C 161.691406 82.402344 161.691406 94.671875 161.691406 107.035156 Z M 161.691406 107.035156 "/>
<path style=" stroke:none;fill-rule:nonzero;fill:rgb(39.607843%,8.627451%,7.45098%);fill-opacity:1;" d="M 164.871094 103.273438 C 165.4375 92.296875 165.988281 81.332031 166.554688 70.324219 C 168.003906 70.085938 168.824219 70.480469 169.171875 71.867188 C 170.226562 76.007812 171.359375 80.121094 172.382812 84.277344 C 172.574219 85.050781 172.636719 86.011719 172.351562 86.71875 C 170.179688 92.296875 167.910156 97.824219 165.660156 103.367188 C 165.421875 103.335938 165.15625 103.304688 164.871094 103.273438 Z M 164.871094 103.273438 "/>
<path style=" stroke:none;fill-rule:nonzero;fill:rgb(39.607843%,8.627451%,7.45098%);fill-opacity:1;" d="M 174.210938 109.304688 C 180.289062 99.429688 186.355469 89.570312 192.433594 79.695312 C 192.589844 79.742188 192.734375 79.804688 192.890625 79.851562 C 192.96875 80.230469 193.09375 80.609375 193.09375 80.972656 C 193.046875 83.949219 193.046875 86.925781 192.875 89.886719 C 192.828125 90.703125 192.511719 91.695312 191.960938 92.261719 C 186.371094 98.011719 180.714844 103.699219 175.0625 109.398438 C 174.949219 109.507812 174.746094 109.507812 174.589844 109.558594 C 174.460938 109.476562 174.335938 109.382812 174.210938 109.304688 Z M 174.210938 109.304688 "/>
<path style=" stroke:none;fill-rule:nonzero;fill:rgb(39.607843%,8.627451%,7.45098%);fill-opacity:1;" d="M 167.234375 107.304688 C 171.972656 96.832031 176.730469 86.371094 181.472656 75.898438 C 181.644531 75.914062 181.800781 75.929688 181.976562 75.945312 C 182.039062 76.464844 182.164062 76.984375 182.148438 77.503906 C 182.039062 80.828125 182.023438 84.167969 181.722656 87.476562 C 181.613281 88.765625 181.078125 90.183594 180.320312 91.238281 C 176.496094 96.453125 172.527344 101.570312 168.589844 106.707031 C 168.320312 107.054688 167.925781 107.273438 167.578125 107.558594 C 167.46875 107.476562 167.359375 107.398438 167.234375 107.304688 Z M 167.234375 107.304688 "/>
<path style=" stroke:none;fill-rule:nonzero;fill:rgb(39.607843%,8.627451%,7.45098%);fill-opacity:1;" d="M 138.03125 76.609375 C 141.765625 86.578125 145.339844 96.105469 148.917969 105.652344 C 148.601562 105.902344 148.285156 106.15625 147.988281 106.421875 C 147.84375 105.949219 147.828125 105.414062 147.5625 105.035156 C 144.726562 101.082031 141.953125 97.066406 138.929688 93.273438 C 137.007812 90.863281 136.726562 88.246094 136.914062 85.414062 C 137.070312 82.988281 137.308594 80.578125 137.527344 78.152344 C 137.558594 77.789062 137.765625 77.425781 138.03125 76.609375 Z M 138.03125 76.609375 "/>
<path style=" stroke:none;fill-rule:nonzero;fill:rgb(100%,100%,100%);fill-opacity:1;" d="M 122.582031 18.492188 C 135.214844 18.082031 141.246094 28.113281 138.097656 40.035156 C 136.585938 45.722656 132.898438 49.613281 127.355469 51.550781 C 123.542969 52.871094 119.589844 53.847656 115.730469 55.046875 C 114.296875 55.503906 114.015625 54.511719 113.714844 53.628906 C 112.0625 48.683594 110.453125 43.722656 108.816406 38.792969 C 107.273438 34.160156 105.746094 29.515625 104.125 24.917969 C 103.746094 23.859375 103.808594 23.277344 104.863281 22.773438 C 109.605469 20.460938 117.320312 18.585938 122.582031 18.492188 Z M 121.273438 22.414062 C 118.410156 23.058594 115.574219 23.8125 112.675781 24.332031 C 110.863281 24.664062 110.503906 25.4375 111.007812 27.136719 C 112.992188 33.703125 114.878906 40.304688 116.816406 46.886719 C 117.871094 50.464844 117.890625 50.511719 121.511719 49.472656 C 126.882812 47.925781 131.371094 45.390625 132.835938 39.40625 C 134.726562 31.800781 131.734375 22.414062 121.273438 22.414062 Z M 121.273438 22.414062 "/>
<path style=" stroke:none;fill-rule:nonzero;fill:rgb(100%,100%,100%);fill-opacity:1;" d="M 189.472656 18.820312 C 194.308594 18.820312 198.703125 20.394531 202.9375 22.492188 C 203.992188 23.011719 204.84375 23.640625 203.960938 25.027344 C 203.175781 26.269531 202.511719 27.6875 200.71875 26.507812 C 197.238281 24.222656 193.472656 23.183594 189.269531 23.121094 C 182.714844 23.027344 178.351562 28.554688 177.613281 33.671875 C 176.039062 44.746094 183.171875 49.722656 192.605469 50.195312 C 193.503906 50.242188 195.191406 49.21875 195.09375 51.421875 C 194.984375 54.039062 194.292969 54.824219 192.039062 54.367188 C 188.417969 53.628906 184.589844 53.171875 181.265625 51.675781 C 174.511719 48.652344 171.941406 43.328125 171.941406 35.738281 C 171.941406 31.246094 173.140625 27.058594 176.304688 23.671875 C 179.878906 19.875 184.496094 18.820312 189.472656 18.820312 Z M 189.472656 18.820312 "/>
<path style=" stroke:none;fill-rule:nonzero;fill:rgb(100%,100%,100%);fill-opacity:1;" d="M 155.894531 15.058594 C 160.617188 14.035156 165.25 14.648438 169.832031 15.8125 C 170.964844 16.097656 171.925781 16.539062 171.375 18.082031 C 170.871094 19.46875 170.507812 20.980469 168.507812 20.207031 C 164.617188 18.710938 160.730469 18.476562 156.601562 19.308594 C 150.175781 20.601562 147.074219 26.917969 147.4375 32.066406 C 148.222656 43.21875 156.253906 46.574219 165.578125 45.0625 C 166.460938 44.917969 167.894531 43.566406 168.273438 45.738281 C 168.714844 48.320312 168.210938 49.234375 165.910156 49.25 C 162.210938 49.28125 158.382812 49.644531 154.808594 48.886719 C 147.578125 47.34375 143.9375 42.699219 142.332031 35.265625 C 141.386719 30.886719 141.671875 26.523438 144.050781 22.554688 C 146.726562 18.097656 151.027344 16.097656 155.894531 15.058594 Z M 155.894531 15.058594 "/>
<path style=" stroke:none;fill-rule:nonzero;fill:rgb(0%,0%,0%);fill-opacity:1;" d="M 87.207031 103.980469 C 96.625 108.203125 105.855469 112.28125 115.039062 116.457031 C 127.859375 122.296875 140.632812 128.253906 153.46875 134.03125 C 155.152344 134.789062 155.390625 135.65625 155.375 137.371094 C 155.214844 148.648438 155.199219 159.925781 155.199219 171.203125 C 155.199219 193.566406 155.246094 215.933594 155.277344 238.296875 C 155.277344 239.179688 155.40625 240.0625 155.515625 241.273438 C 153.308594 240.28125 151.339844 239.398438 149.371094 238.519531 C 129.9375 229.667969 110.503906 220.800781 91.066406 211.949219 C 90.765625 211.820312 90.484375 211.664062 90.183594 211.554688 C 87.742188 210.625 86.941406 209.082031 86.957031 206.261719 C 87.097656 176.558594 87.019531 146.835938 87.019531 117.132812 C 87.019531 113.335938 87.050781 109.527344 87.097656 105.730469 C 87.082031 105.101562 87.160156 104.484375 87.207031 103.980469 Z M 154.304688 239.367188 C 154.304688 232.027344 154.320312 224.878906 154.304688 217.742188 C 154.269531 202.71875 154.160156 187.707031 154.191406 172.683594 C 154.207031 161.203125 154.367188 149.734375 154.554688 138.269531 C 154.585938 136.269531 153.816406 135.339844 152.035156 134.550781 C 142.363281 130.300781 132.742188 125.953125 123.132812 121.574219 C 111.496094 116.28125 99.886719 110.941406 88.152344 105.554688 C 88.152344 106.265625 88.152344 106.941406 88.152344 107.621094 C 88.136719 127.605469 88.136719 147.578125 88.105469 167.5625 C 88.089844 180.839844 87.996094 194.117188 88.074219 207.394531 C 88.074219 208.292969 88.972656 209.632812 89.804688 210.011719 C 96.800781 213.300781 103.886719 216.359375 110.910156 219.585938 C 124.789062 225.933594 138.632812 232.34375 152.492188 238.722656 C 153.042969 238.992188 153.640625 239.148438 154.304688 239.367188 Z M 154.304688 239.367188 "/>
<path style=" stroke:none;fill-rule:nonzero;fill:rgb(100%,100%,100%);fill-opacity:1;" d="M 154.304688 239.367188 C 153.640625 239.132812 153.042969 238.992188 152.476562 238.722656 C 138.617188 232.34375 124.773438 225.933594 110.894531 219.585938 C 103.871094 216.375 96.785156 213.300781 89.789062 210.011719 C 88.957031 209.617188 88.074219 208.292969 88.058594 207.394531 C 87.980469 194.117188 88.074219 180.839844 88.089844 167.5625 C 88.121094 147.578125 88.121094 127.605469 88.136719 107.621094 C 88.136719 106.941406 88.136719 106.265625 88.136719 105.554688 C 99.871094 110.925781 111.496094 116.28125 123.117188 121.574219 C 132.726562 125.953125 142.347656 130.300781 152.019531 134.550781 C 153.796875 135.339844 154.585938 136.285156 154.539062 138.269531 C 154.351562 149.734375 154.191406 161.21875 154.175781 172.683594 C 154.144531 187.707031 154.253906 202.71875 154.285156 217.742188 C 154.320312 224.894531 154.304688 232.027344 154.304688 239.367188 Z M 148.523438 227.398438 C 148.679688 226.878906 148.757812 226.753906 148.757812 226.640625 C 148.757812 203.882812 148.742188 181.140625 148.742188 158.382812 C 148.742188 153.878906 148.835938 149.355469 148.867188 144.851562 C 148.867188 143.703125 148.851562 142.679688 147.4375 142.035156 C 131.480469 134.789062 115.574219 127.464844 99.648438 120.15625 C 97.871094 119.335938 96.089844 118.550781 94.167969 117.683594 C 94.105469 118.488281 94.042969 118.992188 94.042969 119.496094 C 93.996094 146.570312 93.980469 173.644531 93.871094 200.71875 C 93.871094 202.59375 94.894531 202.984375 96.265625 203.601562 C 111.101562 210.339844 125.90625 217.144531 140.726562 223.933594 C 143.277344 225.082031 145.859375 226.203125 148.523438 227.398438 Z M 148.523438 227.398438 "/>
<path style=" stroke:none;fill-rule:nonzero;fill:rgb(39.607843%,8.627451%,7.45098%);fill-opacity:1;" d="M 148.523438 227.398438 C 145.84375 226.21875 143.277344 225.097656 140.710938 223.917969 C 125.890625 217.128906 111.085938 210.324219 96.25 203.585938 C 94.878906 202.953125 93.855469 202.578125 93.855469 200.703125 C 93.949219 173.628906 93.980469 146.554688 94.027344 119.480469 C 94.027344 118.976562 94.089844 118.472656 94.152344 117.667969 C 96.089844 118.535156 97.871094 119.320312 99.632812 120.140625 C 115.558594 127.449219 131.480469 134.773438 147.421875 142.019531 C 148.835938 142.664062 148.851562 143.6875 148.851562 144.835938 C 148.835938 149.339844 148.726562 153.863281 148.726562 158.367188 C 148.726562 181.125 148.742188 203.867188 148.742188 226.625 C 148.757812 226.753906 148.695312 226.863281 148.523438 227.398438 Z M 148.523438 227.398438 "/>
<path style=" stroke:none;fill-rule:nonzero;fill:rgb(0%,0%,0%);fill-opacity:1;" d="M 230.453125 105.714844 C 230.484375 109.507812 230.53125 113.320312 230.53125 117.117188 C 230.53125 146.820312 230.453125 176.542969 230.597656 206.246094 C 230.613281 209.066406 229.824219 210.59375 227.367188 211.539062 C 227.066406 211.648438 226.785156 211.804688 226.484375 211.933594 C 207.050781 220.785156 187.613281 229.652344 168.179688 238.503906 C 166.210938 239.398438 164.242188 240.265625 162.035156 241.257812 C 162.128906 240.046875 162.257812 239.164062 162.273438 238.28125 C 162.304688 215.917969 162.351562 193.550781 162.351562 171.1875 C 162.351562 159.910156 162.335938 148.632812 162.179688 137.355469 C 162.144531 135.640625 162.398438 134.773438 164.082031 134.015625 C 176.917969 128.222656 189.691406 122.265625 202.511719 116.441406 C 211.695312 112.265625 220.925781 108.1875 230.34375 103.964844 C 230.375 104.484375 230.453125 105.101562 230.453125 105.714844 Z M 165.042969 238.738281 C 178.902344 232.359375 192.75 225.949219 206.625 219.601562 C 213.648438 216.390625 220.734375 213.316406 227.730469 210.027344 C 228.5625 209.632812 229.445312 208.308594 229.460938 207.410156 C 229.539062 194.132812 229.445312 180.855469 229.429688 167.578125 C 229.398438 147.59375 229.398438 127.621094 229.382812 107.636719 C 229.382812 106.957031 229.382812 106.28125 229.382812 105.570312 C 217.648438 110.941406 206.027344 116.296875 194.402344 121.589844 C 184.792969 125.96875 175.171875 130.316406 165.5 134.566406 C 163.722656 135.355469 162.933594 136.300781 162.980469 138.285156 C 163.171875 149.75 163.328125 161.234375 163.34375 172.699219 C 163.375 187.722656 163.265625 202.734375 163.234375 217.757812 C 163.21875 224.894531 163.234375 232.042969 163.234375 239.382812 C 163.894531 239.148438 164.492188 238.992188 165.042969 238.738281 Z M 165.042969 238.738281 "/>
<path style=" stroke:none;fill-rule:nonzero;fill:rgb(100%,100%,100%);fill-opacity:1;" d="M 163.234375 217.742188 C 163.265625 202.71875 163.375 187.707031 163.34375 172.683594 C 163.328125 161.203125 163.171875 149.734375 162.980469 138.269531 C 162.949219 136.269531 163.722656 135.339844 165.5 134.550781 C 175.171875 130.300781 184.792969 125.953125 194.402344 121.574219 C 206.042969 116.28125 217.648438 110.941406 229.382812 105.554688 C 229.382812 106.265625 229.382812 106.941406 229.382812 107.621094 C 229.398438 127.605469 229.398438 147.578125 229.429688 167.5625 C 229.445312 180.839844 229.539062 194.117188 229.460938 207.394531 C 229.460938 208.292969 228.5625 209.632812 227.730469 210.011719 C 220.734375 213.300781 213.648438 216.359375 206.625 219.585938 C 192.75 225.933594 178.902344 232.34375 165.042969 238.722656 C 164.492188 238.976562 163.878906 239.132812 163.21875 239.367188 C 163.234375 232.027344 163.21875 224.894531 163.234375 217.742188 Z M 176.808594 223.917969 C 191.628906 217.128906 206.433594 210.324219 221.273438 203.585938 C 222.640625 202.953125 223.664062 202.578125 223.664062 200.703125 C 223.570312 173.628906 223.539062 146.554688 223.492188 119.480469 C 223.492188 118.976562 223.429688 118.472656 223.367188 117.667969 C 221.429688 118.535156 219.648438 119.320312 217.886719 120.140625 C 201.960938 127.449219 186.039062 134.773438 170.101562 142.019531 C 168.683594 142.664062 168.667969 143.6875 168.667969 144.835938 C 168.683594 149.339844 168.792969 153.863281 168.792969 158.367188 C 168.792969 181.125 168.777344 203.867188 168.777344 226.625 C 168.777344 226.753906 168.855469 226.863281 169.011719 227.382812 C 171.675781 226.203125 174.257812 225.082031 176.808594 223.917969 Z M 176.808594 223.917969 "/>
<path style=" stroke:none;fill-rule:nonzero;fill:rgb(39.607843%,8.627451%,7.45098%);fill-opacity:1;" d="M 169.011719 227.398438 C 171.691406 226.21875 174.257812 225.097656 176.824219 223.917969 C 191.644531 217.128906 206.449219 210.324219 221.289062 203.585938 C 222.65625 202.953125 223.679688 202.578125 223.679688 200.703125 C 223.585938 173.628906 223.554688 146.554688 223.507812 119.480469 C 223.507812 118.976562 223.445312 118.472656 223.382812 117.667969 C 221.445312 118.535156 219.664062 119.320312 217.902344 120.140625 C 201.976562 127.449219 186.054688 134.773438 170.117188 142.019531 C 168.699219 142.664062 168.683594 143.6875 168.683594 144.835938 C 168.699219 149.339844 168.808594 153.863281 168.808594 158.367188 C 168.808594 181.125 168.792969 203.867188 168.792969 226.625 C 168.777344 226.753906 168.839844 226.863281 169.011719 227.398438 Z M 169.011719 227.398438 "/>
</g>
</svg>
