<svg width="512" height="512" viewBox="0 0 512 512" fill="none" xmlns="http://www.w3.org/2000/svg">
<path d="M256 501.653C394.072 501.653 506 391.671 506 256.001C506 120.331 394.072 10.3486 256 10.3486C117.929 10.3486 6 120.331 6 256.001C6 391.671 117.929 501.653 256 501.653Z" fill="#14A800"/>
<path d="M345.516 181.708C303.348 181.708 279.742 209.189 272.984 237.481C265.326 223.065 259.649 203.783 255.234 185.853H196.94V258.384C196.94 284.694 184.956 304.156 161.53 304.156C138.103 304.156 124.678 284.694 124.678 258.384L124.948 185.853H91.3398V258.384C91.3398 279.558 98.1878 298.75 110.712 312.445C123.596 326.591 141.166 333.979 161.529 333.979C202.074 333.979 230.366 302.894 230.366 258.384V209.64C234.601 225.678 244.692 256.493 263.974 283.524L245.954 386.149H280.102L291.995 313.437C295.87 316.681 300.015 319.564 304.429 322.177C315.872 329.385 328.937 333.44 342.452 333.89C342.452 333.89 344.525 333.98 345.606 333.98C387.413 333.98 420.66 301.634 420.66 257.935C420.66 214.235 387.323 181.709 345.516 181.709M345.516 304.067C319.656 304.067 302.537 284.064 297.762 276.315C303.889 227.3 321.819 211.803 345.516 211.803C368.942 211.803 387.142 230.544 387.142 257.935C387.142 285.325 368.942 304.067 345.516 304.067Z" fill="white"/>
</svg>
