<svg xmlns="http://www.w3.org/2000/svg" shape-rendering="geometricPrecision" text-rendering="geometricPrecision" image-rendering="optimizeQuality" fill-rule="evenodd" clip-rule="evenodd" viewBox="0 0 512 491.378"><g fill-rule="nonzero"><path fill="#0A2933" d="M0 151.605c0-22.783 1.812-42.459 5.424-59.001 3.812-17.443 9.698-31.599 17.659-42.447 8.253-11.26 18.759-19.708 31.498-25.328 12.298-5.424 26.516-8.14 42.634-8.14 19.321 0 48.045 6.873 62.559 19.904 6.095 5.47 11.298 11.923 15.589 19.322 4.183 7.211 7.465 15.263 9.827 24.124l.2.854c2.379 9.815 3.195 29.67 3.17 53.423 5.025-10.243 10.257-18.508 15.689-24.77 26.041-29.982 70.762-26.107 96.282 2.65 5.624 6.344 11.065 14.601 16.305 24.741a207.67 207.67 0 012.625 5.274c-.346-9.057-.558-16.026-.558-19.655 0-14.955.733-28.286 2.195-39.988 1.508-12.081 3.833-22.533 6.957-31.336 3.233-9.094 7.228-16.917 11.956-23.425 5.045-6.94 10.969-12.464 17.759-16.538 6.27-3.762 13.044-6.591 20.297-8.465C385.29.937 392.83 0 400.666 0c10.315 0 19.972 1.446 28.962 4.329 8.856 1.62 17.134 4.486 24.833 8.594 12.626 6.744 23.408 16.742 32.297 29.965 8.574 12.739 14.964 28.286 19.147 46.604 4.062 17.784 6.095 38.18 6.095 61.163 0 27.049-1.154 54.915-3.454 83.584a1180.54 1180.54 0 01-4.145 42.18c-1.546 13.26-3.416 26.949-5.595 41.038a897.48 897.48 0 01-6.907 38.98c-2.645 13.177-5.361 25.245-8.14 36.168l-.146.534c-3.666 14.522-8.232 27.603-13.672 39.205-5.653 12.052-12.244 22.416-19.738 31.065-8.011 9.244-17.176 16.217-27.478 20.908-10.303 4.712-21.617 7.061-33.902 7.061-8.261 0-16.464-1.316-24.6-3.945-9.177-1.62-18.276-4.891-27.282-9.806-6.778-3.695-13.418-8.669-19.888-14.901-6.166-5.941-12.302-13.144-18.376-21.584-6.111-8.494-11.939-18.417-17.459-29.723-5.341-10.944-10.623-23.704-15.839-38.252h-.054c-3.483-9.723-6.919-20.463-10.302-32.206-3.45 11.806-6.978 22.575-10.569 32.285-5.02 13.569-10.277 25.658-15.764 36.252-5.624 10.852-11.497 20.138-17.601 27.828-6.111 7.69-12.514 14.301-19.196 19.813-6.84 5.636-13.964 10.069-21.362 13.273-7.228 3.128-14.589 5.449-22.059 6.94-7.594 1.516-15.451 2.274-23.546 2.274-9.993 0-19.263-1.395-27.786-4.178-6.165-1.1-11.998-2.829-17.493-5.195-10.414-4.478-19.479-11.206-27.174-20.163-7.244-8.427-13.605-19.533-19.084-33.31-5.186-13.06-9.623-28.666-13.289-46.787h-.054c-1.333-6.653-2.72-14.614-4.149-23.846a791.439 791.439 0 01-3.741-26.982 2089.8 2089.8 0 01-6.182-58.785c-1.042-11.402-1.883-21.392-2.521-30.007a1532.64 1532.64 0 01-1.857-28.882l-.009-.233c-.491-9.011-.879-17.817-1.146-26.432C.15 165.498 0 157.75 0 151.605z"/><path fill="#2FBBF4" d="M24.802 154.359c0-43.671 6.795-74.785 20.392-93.321 13.596-18.543 34.609-27.814 63.044-27.814 18.124 0 32.237 4.534 42.332 13.596 10.095 9.063 17.203 21.327 21.327 36.772 8.413 31.595-3.809 206.12-1.856 206.12 9.885-47.795 19.261-85.082 28.121-111.864 8.86-26.782 18.027-45.632 27.501-56.556 9.48-10.918 19.986-16.374 31.518-16.374 12.362 0 23.384 5.456 33.068 16.374 9.683 10.924 19.156 29.258 28.428 55.007 9.271 25.749 19.261 61.084 29.977 105.997 2.462 0-4.946-133.686-4.946-156.986 0-28.84 2.783-51.087 8.343-66.749 5.567-15.654 13.499-26.572 23.796-32.753 10.304-6.181 22.247-9.271 35.844-9.271 27.193 0 48.415 11.329 63.658 33.995 15.251 22.658 22.869 56.033 22.869 100.122 0 26.783-1.131 54.283-3.398 82.509-2.267 28.218-5.462 55.621-9.578 82.193-4.123 26.58-9.07 51.199-14.832 73.858-7.004 28.016-17.203 49.754-30.598 65.206-13.387 15.446-30.381 23.175-50.989 23.175-11.532 0-22.966-3.09-34.295-9.271-11.337-6.181-22.561-16.994-33.689-32.446-11.12-15.453-21.626-36.981-31.518-64.586-9.886-27.605-19.157-62.626-27.808-105.069h-2.476c-8.651 42.032-17.818 76.124-27.501 102.285-9.682 26.168-20.084 46.253-31.211 60.261-11.127 14.008-22.868 23.691-35.23 29.049-12.362 5.358-25.75 8.029-40.17 8.029-21.423 0-38.425-7.311-50.989-21.94-12.571-14.622-22.352-39.241-29.356-73.85-2.888-14.42-5.462-31.01-7.73-49.754a2076.288 2076.288 0 01-6.181-58.405c-1.848-20.19-3.292-39.66-4.325-58.405-1.025-18.746-1.542-35.126-1.542-49.134z"/><path fill="#fff" d="M64.959 86.467c1.566-4.278 6.311-6.474 10.589-4.907 4.279 1.566 6.474 6.311 4.908 10.589-3.958 10.786-7.012 23.579-9.086 38.443-2.071 14.86-3.179 31.703-3.241 50.574 0 4.545-3.691 8.236-8.236 8.236-4.545 0-8.236-3.691-8.236-8.236.067-19.767 1.216-37.36 3.374-52.832 2.246-16.088 5.583-30.027 9.928-41.867zM52.098 206.182c-.229-4.545 3.271-8.427 7.816-8.657 4.545-.229 8.427 3.271 8.656 7.816l.242 4.449c.229 4.545-3.27 8.427-7.815 8.657-4.545.229-8.428-3.271-8.657-7.816l-.242-4.449z"/></g></svg>