<svg width="137" height="40" viewBox="0 0 137 40" fill="none" xmlns="http://www.w3.org/2000/svg">
<path d="M6 3.96V15.88L17.24 3.68C18.68 2.2 19.12 0.719999 16.84 0.719999V0.32H23.92V0.719999C21.84 0.719999 20 1.64 18.36 3.2L8.6 13.84C16.88 16.48 21.12 30.2 31.16 35.4C33.68 36.72 36.4 37.4 39.16 37.4C41.36 37.4 43.6 36.96 45.72 36.04L45.88 36.32C42.88 38.04 39.44 39.2 35.84 39.2C33.72 39.2 31.56 38.8 29.4 37.88C19.2 33.52 15.56 16.36 8.24 14.2L6 16.64V23.68C6 27 6.8 27.92 9.2 27.92V28.32H-1.3411e-07V27.92C2.4 27.92 3.2 27.12 3.2 24.32V4.32C3.2 1.52 2.4 0.719999 -1.3411e-07 0.719999V0.32H9.2V0.719999C6.8 0.719999 6 1.48 6 3.96ZM37.9878 1.43051e-06H40.7878L49.9478 25.4C50.7878 27.36 51.5078 27.92 53.5878 27.92V28.32H44.8678V27.92C47.1478 27.92 47.5478 27.2 46.7478 24.8L44.9878 19.92H31.2678L29.3878 25.04C28.7078 27.24 29.1478 27.92 31.3478 27.92V28.32H25.1078V27.92C27.2278 27.92 27.9478 27.32 28.7878 25.24L37.9878 1.43051e-06ZM31.4278 19.44H44.8278L38.1478 1L31.4278 19.44ZM60.8047 4.32V24.32C60.8047 26.64 61.3647 27.56 62.8847 27.84H77.8847C81.0847 27.84 81.8847 27.04 82.6847 23.44H83.0847L82.2847 28.32H54.8047V27.92C57.2047 27.92 58.0047 27.12 58.0047 24.32V4.32C58.0047 1.52 57.2047 0.719999 54.8047 0.719999V0.32H64.0047V0.719999C61.6047 0.719999 60.8047 1.52 60.8047 4.32ZM75.8847 20.56C75.9247 20.56 77.9647 20.56 78.0047 20.56C81.0847 20.52 81.8847 19.72 82.6847 16.16H83.0847L82.2847 20.96H66.6847V20.56C69.0847 20.56 69.8847 19.76 69.8847 16.96V4.32C69.8847 1.52 69.0847 0.719999 66.6847 0.719999V0.32H75.8847V0.719999C74.0047 0.719999 72.8047 1.72 72.8047 4.32V18.52C73.1247 20.08 74.0047 20.56 75.8847 20.56ZM98.9872 1.43051e-06C106.707 1.43051e-06 112.907 6.4 112.907 14.32C112.907 22.24 106.707 28.64 98.9872 28.64C91.2672 28.64 85.0672 22.24 85.0672 14.32C85.0672 6.4 91.2672 1.43051e-06 98.9872 1.43051e-06ZM98.9872 28.16C106.147 28.16 109.747 20.2 109.747 14.32C109.747 8.44 106.147 0.48 98.9872 0.48C91.8272 0.48 88.3072 8.44 88.3072 14.32C88.3072 20.2 91.8272 28.16 98.9872 28.16ZM121.703 4.32V24.32C121.703 26.64 122.263 27.56 123.783 27.84H131.703C134.903 27.84 135.703 26.24 136.503 22.64H136.903L136.103 28.32H115.703V27.92C118.103 27.92 118.903 27.12 118.903 24.32V4.32C118.903 1.52 118.103 0.719999 115.703 0.719999V0.32H124.903V0.719999C122.503 0.719999 121.703 1.52 121.703 4.32Z" fill="white"/>
</svg>
