<svg width="278" height="37" viewBox="0 0 278 37" fill="none" xmlns="http://www.w3.org/2000/svg">
<g clip-path="url(#clip0_2484_64)">
<mask id="mask0_2484_64" style="mask-type:luminance" maskUnits="userSpaceOnUse" x="0" y="0" width="278" height="37">
<path d="M278 0H0V37H278V0Z" fill="white"/>
</mask>
<g mask="url(#mask0_2484_64)">
<path d="M4.31999 33.056C4.19199 34.208 3.93599 35.712 2.43199 35.712C1.75999 35.712 1.08799 35.328 0.831995 34.56C0.639995 33.984 0.543995 33.408 0.447995 32.832C0.0639945 30.144 -5.54556e-06 27.424 0.0319945 24.704C0.0959946 21.888 0.223995 19.072 0.479995 16.256C0.511995 15.712 0.543995 15.136 0.607995 14.592C0.735995 13.728 1.43999 13.152 2.20799 13.152C2.49599 13.152 2.78399 13.248 3.07199 13.44C3.48799 13.696 3.68 14.24 3.93599 14.688C4.16 15.136 4.06399 15.744 3.83999 16.192C3.77599 16.256 3.68 16.32 3.68 16.416C3.58399 17.44 3.48799 18.464 3.424 19.488C4.384 16.992 6.39999 13.408 9.472 13.408C11.008 13.408 12.256 14.4 13.056 15.648C14.176 17.408 14.528 19.84 14.048 21.888C13.248 25.056 10.4 27.232 7.13599 27.232C6.43199 27.232 5.72799 27.104 5.05599 26.88C4.76799 28.928 4.57599 31.008 4.31999 33.056ZM5.6 23.68C6.08 23.872 6.56 24.032 7.07199 24.032C8.352 24.032 10.112 23.168 10.656 21.984C11.168 20.896 11.136 19.552 10.816 18.368C10.656 17.792 10.112 16.704 9.50399 16.608C9.21599 16.608 8.70399 16.96 8.512 17.152C6.784 18.88 6.08 21.344 5.6 23.68ZM20.0447 26.848C19.7887 27.904 19.3087 29.12 18.0287 29.12C17.4847 29.12 16.9727 28.896 16.6207 28.416C16.4287 28.096 16.3007 27.744 16.2047 27.392C15.9487 26.24 15.8527 25.024 15.7567 23.808C15.5007 20.928 15.3087 18.048 15.4687 15.136C15.4687 14.176 16.1407 13.376 17.1327 13.376C17.4527 13.376 17.7727 13.472 18.0607 13.664C18.8927 14.24 19.2767 15.36 18.6047 16.128C18.5727 17.472 18.6367 18.784 18.7007 20.096C19.6607 17.952 21.4527 14.496 24.1087 14.496C24.9727 14.496 26.1887 14.72 26.5727 15.328C26.6687 15.456 26.7647 15.648 26.8287 15.808C27.1487 16.64 26.6047 17.472 25.7727 17.824C25.2927 18.016 24.7167 17.696 24.1727 17.664C23.9807 17.664 23.6607 18.048 23.5327 18.176C22.7007 19.104 22.1247 20.256 21.6127 21.408C20.9087 23.168 20.5247 25.024 20.0447 26.848ZM39.7805 24.928C38.6285 27.808 35.4605 30.272 32.2925 30.272C31.0125 30.272 30.0205 29.856 29.1245 28.896C28.3885 28 27.9725 26.816 27.7805 25.664C27.4285 23.36 27.5565 20.896 28.2285 18.656C28.7725 16.832 30.7565 13.408 32.9965 13.408C34.2125 13.408 35.3965 14.336 35.7485 15.52C38.3725 16.192 40.0045 18.88 40.2925 21.44C40.4525 22.624 40.2285 23.84 39.7805 24.928ZM30.9165 24.896C31.0125 25.696 31.2365 27.072 32.2605 27.072C34.4365 27.072 36.5485 25.056 37.0605 23.008C37.3485 21.792 36.8685 20.352 36.1005 19.392C35.7485 18.976 35.2685 18.656 34.7565 18.56C34.2445 18.432 33.6685 18.464 33.2205 18.176C32.9005 17.984 32.6445 17.632 32.5165 17.28C31.9725 17.984 31.5245 18.784 31.2685 19.616C30.7565 21.312 30.6925 23.168 30.9165 24.896ZM53.468 24.928C52.316 27.808 49.148 30.272 45.98 30.272C44.7 30.272 43.708 29.856 42.812 28.896C42.076 28 41.66 26.816 41.468 25.664C41.116 23.36 41.244 20.896 41.916 18.656C42.46 16.832 44.444 13.408 46.684 13.408C47.9 13.408 49.084 14.336 49.436 15.52C52.06 16.192 53.692 18.88 53.98 21.44C54.14 22.624 53.916 23.84 53.468 24.928ZM44.604 24.896C44.7 25.696 44.924 27.072 45.948 27.072C48.124 27.072 50.236 25.056 50.748 23.008C51.036 21.792 50.556 20.352 49.788 19.392C49.436 18.976 48.956 18.656 48.444 18.56C47.932 18.432 47.356 18.464 46.908 18.176C46.588 17.984 46.332 17.632 46.204 17.28C45.66 17.984 45.212 18.784 44.956 19.616C44.444 21.312 44.38 23.168 44.604 24.896ZM61.0115 33.44C61.0115 34.688 60.8515 36.288 59.2195 36.288C58.7395 36.288 58.2595 36.064 57.9075 35.616C57.5235 35.04 57.1395 32.48 57.0115 31.776C56.5955 28.928 56.2435 26.08 56.2115 23.2C56.0515 23.168 55.9235 23.136 55.7635 23.072C54.6755 22.656 54.3555 21.312 55.1235 20.416C55.3795 20.128 55.8275 19.872 56.2435 19.776C56.3395 17.568 56.5955 15.328 57.0115 13.12C57.4915 10.464 58.3875 6.176 61.7155 6.048C63.2195 6.048 64.4355 6.72 65.5555 7.68L66.0035 7.904C66.2595 8.032 66.4195 8.288 66.5475 8.512C67.0595 9.44 66.5155 10.592 65.4915 10.816C65.1395 10.912 64.7235 10.816 64.4035 10.688C63.5715 10.336 62.9315 9.504 62.0355 9.28C61.9715 9.28 61.7475 9.248 61.6515 9.28C61.3955 9.376 61.1715 10.08 61.0435 10.336C60.0195 12.992 59.6035 16.864 59.4435 19.712C60.7875 19.488 62.1315 19.2 63.4435 18.912C64.9155 18.624 65.9715 20.32 65.0115 21.504C64.7875 21.792 64.4355 21.984 64.0835 22.048C62.5155 22.368 60.9795 22.688 59.4115 22.944C59.3795 23.168 59.4115 23.392 59.4115 23.616C59.5075 26.56 59.8595 29.472 60.3395 32.352C60.3715 32.416 60.5955 32.576 60.6275 32.64C60.7875 32.864 60.9475 33.152 61.0115 33.44ZM84.386 28.224C84.162 28.96 83.458 29.472 82.754 29.472C82.178 29.472 81.602 29.12 81.314 28.608C80.866 27.68 80.898 26.56 80.834 25.536C80.706 23.552 80.642 21.536 80.642 19.552C80.098 19.616 79.554 19.68 79.01 19.712C78.786 19.744 78.53 19.776 78.274 19.776C78.05 19.776 77.858 19.744 77.634 19.68C76.322 19.232 76.194 17.376 77.474 16.736C77.826 16.576 78.274 16.576 78.69 16.544C79.362 16.48 80.002 16.416 80.642 16.32C80.674 15.488 80.674 14.624 80.706 13.792C80.77 12.832 80.802 11.872 80.866 10.912C80.994 9.728 81.218 8.128 82.754 8.128C83.554 8.128 84.482 8.832 84.674 9.6C84.77 10.08 84.61 10.656 84.322 11.04C84.29 11.104 84.066 11.232 84.066 11.328C83.906 12.864 83.874 14.4 83.874 15.936C84.802 15.808 85.73 15.68 86.626 15.456C87.778 15.2 88.802 16.128 88.642 17.28C88.578 17.568 88.418 17.824 88.258 18.08C87.746 18.752 85.442 18.976 84.578 19.072C84.322 19.104 84.066 19.136 83.842 19.168C83.842 21.408 83.906 23.616 84.066 25.856C84.066 25.888 84.226 26.016 84.258 26.048C84.418 26.272 84.578 26.56 84.642 26.848C84.706 27.296 84.546 27.776 84.386 28.224ZM94.7472 26.368C94.4272 27.552 94.0432 29.024 92.5392 29.024C91.5792 29.024 90.9072 28.256 90.7152 27.36C90.3632 26.336 90.2032 25.248 90.0752 24.192C89.7872 21.76 89.7232 19.328 89.7552 16.896C89.7872 14.464 89.9472 12 90.3312 9.568C90.3952 9.216 90.4592 8.864 90.4912 8.512C90.5872 7.552 91.0672 6.72 92.1232 6.72C92.7312 6.72 93.3072 7.04 93.5952 7.648C93.7872 8.096 93.7232 8.672 93.6592 9.184C92.9232 13.088 92.8272 17.152 93.0192 21.152C93.9152 18.784 95.2592 16.448 97.2432 14.88C97.7552 14.464 98.3632 14.112 99.0352 14.112C100.507 14.112 101.179 15.392 101.531 16.64C101.819 17.792 101.947 18.976 102.043 20.128C102.203 22.176 102.203 24.224 102.427 26.272C102.427 26.304 102.459 26.368 102.459 26.432C102.523 26.688 102.523 26.976 102.523 27.264C102.459 28.032 101.723 28.672 100.923 28.672C99.8032 28.672 99.3552 27.808 99.2592 26.784C98.9712 23.872 99.0992 20.896 98.5552 18.016C97.8512 18.752 97.2432 19.616 96.7952 20.512C95.8352 22.336 95.3232 24.384 94.7472 26.368ZM112.676 24.288C111.652 26.144 109.572 29.76 107.14 29.76C106.532 29.76 105.924 29.568 105.444 29.216C103.492 27.776 103.108 23.584 103.812 21.248C104.708 18.272 107.396 14.848 110.82 14.848C111.268 14.848 111.748 14.976 112.132 15.232C112.772 15.648 113.284 16.192 113.828 16.704C114.308 16.736 114.82 16.96 115.076 17.344C115.396 17.728 115.46 18.272 115.492 18.752C115.62 21.088 115.684 23.456 116.132 25.76C116.132 25.824 116.324 26.016 116.356 26.08C116.708 26.624 116.644 27.36 116.228 27.936C115.876 28.416 115.364 28.64 114.884 28.64C114.18 28.64 113.476 28.192 113.22 27.392C112.932 26.368 112.804 25.312 112.676 24.288ZM106.66 23.936C106.692 24.8 106.82 25.696 107.236 26.464C108.964 24.896 110.724 21.12 111.62 19.008C111.268 18.688 110.948 18.368 110.564 18.08C109.732 18.176 108.996 18.816 108.42 19.424C107.332 20.608 106.596 22.336 106.66 23.936ZM124.886 28.224C124.662 28.96 123.958 29.472 123.254 29.472C122.678 29.472 122.102 29.12 121.814 28.608C121.366 27.68 121.398 26.56 121.334 25.536C121.206 23.552 121.142 21.536 121.142 19.552C120.598 19.616 120.054 19.68 119.51 19.712C119.286 19.744 119.03 19.776 118.774 19.776C118.55 19.776 118.358 19.744 118.134 19.68C116.822 19.232 116.694 17.376 117.974 16.736C118.326 16.576 118.774 16.576 119.19 16.544C119.862 16.48 120.502 16.416 121.142 16.32C121.174 15.488 121.174 14.624 121.206 13.792C121.27 12.832 121.302 11.872 121.366 10.912C121.494 9.728 121.718 8.128 123.254 8.128C124.054 8.128 124.982 8.832 125.174 9.6C125.27 10.08 125.11 10.656 124.822 11.04C124.79 11.104 124.566 11.232 124.566 11.328C124.406 12.864 124.374 14.4 124.374 15.936C125.302 15.808 126.23 15.68 127.126 15.456C128.278 15.2 129.302 16.128 129.142 17.28C129.078 17.568 128.918 17.824 128.758 18.08C128.246 18.752 125.942 18.976 125.078 19.072C124.822 19.104 124.566 19.136 124.342 19.168C124.342 21.408 124.406 23.616 124.566 25.856C124.566 25.888 124.726 26.016 124.758 26.048C124.918 26.272 125.078 26.56 125.142 26.848C125.206 27.296 125.046 27.776 124.886 28.224ZM143.145 9.792C142.985 10.816 142.025 11.264 141.065 11.264C141.065 11.264 141.033 11.264 141.001 11.264C139.145 11.04 139.049 8.288 140.905 7.936C141.033 7.904 141.161 7.904 141.289 7.904C142.345 7.904 143.273 8.704 143.145 9.792ZM143.049 29.12C142.889 29.184 142.697 29.216 142.537 29.216C141.801 29.216 141.161 28.704 140.969 27.968C140.361 25.504 139.913 23.008 139.721 20.448C139.625 19.424 139.561 18.4 139.593 17.376C139.657 16.256 140.073 15.04 141.417 15.04C141.641 15.04 141.897 15.104 142.153 15.2C142.473 15.36 142.729 15.616 142.953 15.904C143.433 16.48 143.497 17.44 142.985 17.984C142.921 18.016 142.793 18.112 142.793 18.144C142.857 21.216 143.369 24.256 144.073 27.232C144.297 28.032 143.849 28.864 143.049 29.12ZM163.895 24.288C162.871 26.144 160.791 29.76 158.359 29.76C157.751 29.76 157.143 29.568 156.663 29.216C154.711 27.776 154.327 23.584 155.031 21.248C155.927 18.272 158.615 14.848 162.039 14.848C162.487 14.848 162.967 14.976 163.351 15.232C163.991 15.648 164.503 16.192 165.047 16.704C165.527 16.736 166.039 16.96 166.295 17.344C166.615 17.728 166.679 18.272 166.711 18.752C166.839 21.088 166.903 23.456 167.351 25.76C167.351 25.824 167.543 26.016 167.575 26.08C167.927 26.624 167.863 27.36 167.447 27.936C167.095 28.416 166.583 28.64 166.103 28.64C165.399 28.64 164.695 28.192 164.439 27.392C164.151 26.368 164.023 25.312 163.895 24.288ZM157.879 23.936C157.911 24.8 158.039 25.696 158.455 26.464C160.183 24.896 161.943 21.12 162.839 19.008C162.487 18.688 162.167 18.368 161.783 18.08C160.951 18.176 160.215 18.816 159.639 19.424C158.551 20.608 157.815 22.336 157.879 23.936ZM172.969 31.328C172.585 31.776 172.073 31.968 171.561 31.968C169.929 31.968 169.481 30.144 169.289 28.832C168.585 24.768 169.129 20.608 169.289 16.48C169.289 15.584 169.929 14.752 170.889 14.752C171.721 14.752 172.553 15.424 172.521 16.48C172.393 19.04 172.137 21.568 172.137 24.128C172.905 21.792 175.465 14.848 178.633 14.848C181.033 14.848 181.545 18.016 181.769 19.84C182.825 17.6 184.649 14.72 187.497 14.72C190.505 14.72 191.497 17.632 191.849 20.192C192.073 22.24 192.073 24.288 192.009 26.368C192.009 26.432 192.169 26.72 192.201 26.784C192.393 27.392 192.041 28.16 191.657 28.64C191.465 28.864 191.209 28.992 190.953 29.088C190.793 29.12 190.633 29.152 190.505 29.152C189.801 29.152 189.129 28.704 188.905 28.032C188.809 27.712 188.809 27.36 188.809 27.008C188.841 24.448 189.033 21.824 188.457 19.328C188.297 18.72 188.041 17.92 187.465 17.92C186.313 17.92 185.033 20.416 184.585 21.312C184.009 22.528 183.561 23.776 183.113 25.024C182.761 26.08 182.313 27.392 180.969 27.392C179.305 27.392 179.049 25.568 178.953 24.288C178.761 22.4 178.761 20.48 178.313 18.624C177.577 19.552 177.033 20.64 176.521 21.728C175.465 24 174.761 26.432 174.057 28.864C173.801 29.696 173.577 30.656 172.969 31.328ZM208.531 27.904C208.275 29.12 207.731 30.56 206.227 30.56C205.043 30.56 204.371 29.408 204.147 28.352C203.731 26.72 203.699 25.056 203.603 23.392C203.475 20.864 203.443 18.304 203.155 15.776C203.155 15.68 203.123 15.616 203.091 15.552C203.027 15.232 203.059 14.912 203.187 14.624C203.411 13.888 204.051 13.536 204.691 13.536C205.619 13.536 206.291 14.272 206.291 15.168C206.579 17.504 206.643 19.872 206.739 22.208C207.699 19.36 209.683 15.008 213.235 15.008C216.019 15.008 216.883 17.888 217.171 20.192C217.395 21.952 217.427 23.712 217.459 25.472C217.587 25.632 217.651 25.856 217.747 26.048C217.939 26.656 217.523 27.712 217.075 28.128C216.755 28.384 216.403 28.512 216.019 28.512C214.643 28.512 214.259 27.424 214.259 26.272C214.227 24.192 214.227 22.112 213.907 20.096C213.843 19.712 213.555 18.56 213.299 18.272C213.171 18.112 212.883 18.24 212.691 18.368C211.635 18.88 210.707 20.96 210.259 21.952C209.491 23.84 209.043 25.888 208.531 27.904ZM231.03 24.928C229.878 27.808 226.71 30.272 223.542 30.272C222.262 30.272 221.27 29.856 220.374 28.896C219.638 28 219.222 26.816 219.03 25.664C218.678 23.36 218.806 20.896 219.478 18.656C220.022 16.832 222.006 13.408 224.246 13.408C225.462 13.408 226.646 14.336 226.998 15.52C229.622 16.192 231.254 18.88 231.542 21.44C231.702 22.624 231.478 23.84 231.03 24.928ZM222.166 24.896C222.262 25.696 222.486 27.072 223.51 27.072C225.686 27.072 227.798 25.056 228.31 23.008C228.598 21.792 228.118 20.352 227.35 19.392C226.998 18.976 226.518 18.656 226.006 18.56C225.494 18.432 224.918 18.464 224.47 18.176C224.15 17.984 223.894 17.632 223.766 17.28C223.222 17.984 222.774 18.784 222.518 19.616C222.006 21.312 221.942 23.168 222.166 24.896ZM239.886 28.224C239.662 28.96 238.958 29.472 238.254 29.472C237.678 29.472 237.102 29.12 236.814 28.608C236.366 27.68 236.398 26.56 236.334 25.536C236.206 23.552 236.142 21.536 236.142 19.552C235.598 19.616 235.054 19.68 234.51 19.712C234.286 19.744 234.03 19.776 233.774 19.776C233.55 19.776 233.358 19.744 233.134 19.68C231.822 19.232 231.694 17.376 232.974 16.736C233.326 16.576 233.774 16.576 234.19 16.544C234.862 16.48 235.502 16.416 236.142 16.32C236.174 15.488 236.174 14.624 236.206 13.792C236.27 12.832 236.302 11.872 236.366 10.912C236.494 9.728 236.718 8.128 238.254 8.128C239.054 8.128 239.982 8.832 240.174 9.6C240.27 10.08 240.11 10.656 239.822 11.04C239.79 11.104 239.566 11.232 239.566 11.328C239.406 12.864 239.374 14.4 239.374 15.936C240.302 15.808 241.23 15.68 242.126 15.456C243.278 15.2 244.302 16.128 244.142 17.28C244.078 17.568 243.918 17.824 243.758 18.08C243.246 18.752 240.942 18.976 240.078 19.072C239.822 19.104 239.566 19.136 239.342 19.168C239.342 21.408 239.406 23.616 239.566 25.856C239.566 25.888 239.726 26.016 239.758 26.048C239.918 26.272 240.078 26.56 240.142 26.848C240.206 27.296 240.046 27.776 239.886 28.224ZM263.489 24.288C262.465 26.144 260.385 29.76 257.953 29.76C257.345 29.76 256.737 29.568 256.257 29.216C254.305 27.776 253.921 23.584 254.625 21.248C255.521 18.272 258.209 14.848 261.633 14.848C262.081 14.848 262.561 14.976 262.945 15.232C263.585 15.648 264.097 16.192 264.641 16.704C265.121 16.736 265.633 16.96 265.889 17.344C266.209 17.728 266.273 18.272 266.305 18.752C266.433 21.088 266.497 23.456 266.945 25.76C266.945 25.824 267.137 26.016 267.169 26.08C267.521 26.624 267.457 27.36 267.041 27.936C266.689 28.416 266.177 28.64 265.697 28.64C264.993 28.64 264.289 28.192 264.033 27.392C263.745 26.368 263.617 25.312 263.489 24.288ZM257.473 23.936C257.505 24.8 257.633 25.696 258.049 26.464C259.777 24.896 261.537 21.12 262.433 19.008C262.081 18.688 261.761 18.368 261.377 18.08C260.545 18.176 259.809 18.816 259.233 19.424C258.145 20.608 257.409 22.336 257.473 23.936ZM272.082 9.792C271.922 10.816 270.962 11.264 270.002 11.264C270.002 11.264 269.97 11.264 269.938 11.264C268.082 11.04 267.986 8.288 269.842 7.936C269.97 7.904 270.098 7.904 270.226 7.904C271.282 7.904 272.21 8.704 272.082 9.792ZM271.986 29.12C271.826 29.184 271.634 29.216 271.474 29.216C270.738 29.216 270.098 28.704 269.906 27.968C269.298 25.504 268.85 23.008 268.658 20.448C268.562 19.424 268.498 18.4 268.53 17.376C268.594 16.256 269.01 15.04 270.354 15.04C270.578 15.04 270.834 15.104 271.09 15.2C271.41 15.36 271.666 15.616 271.89 15.904C272.37 16.48 272.434 17.44 271.922 17.984C271.858 18.016 271.73 18.112 271.73 18.144C271.794 21.216 272.306 24.256 273.01 27.232C273.234 28.032 272.786 28.864 271.986 29.12ZM283.201 32H315.201V0H283.201V32Z" fill="#A09F9F"/>
</g>
</g>
<defs>
<clipPath id="clip0_2484_64">
<rect width="278" height="37" fill="white"/>
</clipPath>
</defs>
</svg>
