<svg width="69" height="62" viewBox="0 0 69 62" fill="none" xmlns="http://www.w3.org/2000/svg">
<path d="M55.5387 28.9505C41.151 28.3826 29.6163 16.849 29.0496 2.46142L29 1.20837L28.9505 2.46142C28.3838 16.849 16.849 28.3826 2.46142 28.9505L1.20837 29L2.46142 29.0496C16.849 29.6175 28.3826 41.151 28.9505 55.5387L29 56.7917L29.0496 55.5387C29.6175 41.151 41.151 29.6175 55.5387 29.0496L56.7917 29L55.5387 28.9505Z" fill="#09FF00"/>
<g clip-path="url(#clip0_2061_122)">
<path d="M67.8542 48.4769C61.1565 48.2126 55.7869 42.8435 55.5231 36.1458L55.5 35.5625L55.4769 36.1458C55.2131 42.8435 49.8435 48.2126 43.1458 48.4769L42.5625 48.5L43.1458 48.5231C49.8435 48.7874 55.2126 54.1565 55.4769 60.8542L55.5 61.4375L55.5231 60.8542C55.7874 54.1565 61.1565 48.7874 67.8542 48.5231L68.4375 48.5L67.8542 48.4769Z" fill="#09FF00"/>
</g>
<defs>
<clipPath id="clip0_2061_122">
<rect width="27" height="27" fill="white" transform="translate(42 35)"/>
</clipPath>
</defs>
</svg>
